<!-- Generated by IcoMoon.io -->
<svg aria-hidden="true" style="position: absolute; width: 0; height: 0; overflow: hidden;" version="1.1" xmlns="http://www.w3.org/2000/svg" xmlns:xlink="http://www.w3.org/1999/xlink">
<defs>
<symbol id="icon-display" viewBox="0 0 32 32">
<path d="M0 2v20h32v-20h-32zM30 20h-28v-16h28v16zM21 24h-10l-1 4-2 2h16l-2-2z"></path>
</symbol>
<symbol id="icon-laptop" viewBox="0 0 32 32">
<path d="M28 22v-16c0-1.1-0.9-2-2-2h-20c-1.1 0-2 0.9-2 2v16h-4v6h32v-6h-4zM20 26h-8v-2h8v2zM26 22h-20v-15.996c0.001-0.001 0.002-0.003 0.004-0.004h19.993c0.001 0.001 0.003 0.002 0.004 0.004v15.996z"></path>
</symbol>
<symbol id="icon-mobile" viewBox="0 0 32 32">
<path d="M23 0h-14c-1.65 0-3 1.35-3 3v26c0 1.65 1.35 3 3 3h14c1.65 0 3-1.35 3-3v-26c0-1.65-1.35-3-3-3zM12 1.5h8v1h-8v-1zM16 30c-1.105 0-2-0.895-2-2s0.895-2 2-2 2 0.895 2 2-0.895 2-2 2zM24 24h-16v-20h16v20z"></path>
</symbol>
</defs>
</svg>
